# xmcd
#
# Track frame offsets:
# 150
# 16670
# 34814
# 51151
# 66221
# 82476
# 100300
# 122598
# 140111
# 158383
# 176145
# 194522
# 210048
# 225970
# 243059
# 260827
# 277441
# 293318
# 311917
#
# Disc length: 4362 seconds
#
#
# Revision: 0
# Processed by: cddbd v1.5.2PL0 Copyright (c) Steve Scherf et al.
# Submitted via: FreeRIP 2.951 
#
DISCID=10110813
DTITLE=Varios - Black Total Especial 2004
DYEAR=2004
DGENRE=Hip-Hop
TTITLE0=50 cent - 21 questions
TTITLE1=B2K - girlfriends
TTITLE2=Biz Markie - Let me see U Bounce
TTITLE3=Britney Spears - Toxic
TTITLE4=RZA - We pop
TTITLE5=Petey Pablo - Jam y'all
TTITLE6=Black Eyed Peads - Shut up
TTITLE7=W.C. - Wc.F.kin wit uh house party
TTITLE8=Ja Rule - Always on time
TTITLE9=Fat e Joe Budden - Not your a verage joe
TTITLE10=Wyclef Jean - Loving you
TTITLE11=Eve Feat Drag-On - Got what you need
TTITLE12=Outlandish - Guantanamo
TTITLE13=Ja Rule - Clap back
TTITLE14=Petey Pablo - Freek a leek
TTITLE15=Blu Cantrell e Troy Cash - Girl please
TTITLE16=D12 and Eminem - Bitch
TTITLE17=SSP - Quem é q. me faz feliz(tú)
TTITLE18=Usher, Lil Jon e Eastside Boys - Yeah
EXTD=
EXTT0=
EXTT1=
EXTT2=
EXTT3=
EXTT4=
EXTT5=
EXTT6=
EXTT7=
EXTT8=
EXTT9=
EXTT10=
EXTT11=
EXTT12=
EXTT13=
EXTT14=
EXTT15=
EXTT16=
EXTT17=
EXTT18=
PLAYORDER=
